<svg viewBox="0 0 638 631" width="638" height="631">
<path stroke="null" id="svg_2" d="m634.33306,317.66691c0,-174.15398 -141.17934,-315.33332 -315.33286,-315.33332c-174.15398,0 -315.33332,141.17934 -315.33332,315.33332c0,157.39159 115.31263,287.84622 266.06236,311.5022l0,-220.35137l-80.06491,0l0,-91.15084l80.06491,0l0,-69.47184c0,-79.03069 47.07687,-122.68432 119.10586,-122.68432c34.50034,0 70.5869,6.15869 70.5869,6.15869l0,77.60152l-39.76292,0c-39.17215,0 -51.38791,24.30729 -51.38791,49.24463l0,59.1513l87.45553,0l-13.98075,91.15084l-73.47525,0l0,220.35137c150.74973,-23.65599 266.06236,-154.11062 266.06236,-311.5022" fill="#1877f2"/>
<path stroke="null" id="svg_3" d="m441.74594,408.81776l13.98075,-91.15084l-87.45599,0l0,-59.15176c0,-24.93688 12.21623,-49.24417 51.38837,-49.24417l39.76292,0l0,-77.60152s-36.08656,-6.15869 -70.5869,-6.15869c-72.02899,0 -119.10586,43.65363 -119.10586,122.68432l0,69.47184l-80.06491,0l0,91.15084l80.06491,0l0,220.35137a317.70663,317.70663 0 0 0 49.27096,3.83065c16.76193,0 33.21623,-1.31183 49.2705,-3.83065l0,-220.35137l73.47525,0" fill="#fff"/>
</svg>
